<svg xmlns="http://www.w3.org/2000/svg" width="20" height="21" viewBox="0 0 20 21">
    <path fill="#FFF" fill-rule="nonzero" d="M15.97 13.331a3.652 3.652 0 0 0-2.703 1.194l-5.821-2.797c.139-.387.218-.801.218-1.236 0-.434-.08-.849-.218-1.236l5.821-2.796a3.663 3.663 0 0 0 6.368-2.466A3.663 3.663 0 0 0 15.97.334a3.663 3.663 0 0 0-3.665 3.66c0 .194.02.383.049.568L6.156 7.538a3.662 3.662 0 0 0-5.823 2.953 3.663 3.663 0 0 0 5.823 2.954l6.197 2.977a3.693 3.693 0 0 0-.049.569 3.663 3.663 0 0 0 3.666 3.66 3.662 3.662 0 0 0 3.664-3.66c0-2.022-1.64-3.66-3.664-3.66z"/>
</svg>
